<svg data-v-0dd9719b="" version="1.0" xmlns="http://www.w3.org/2000/svg" xmlns:xlink="http://www.w3.org/1999/xlink" width="100%" height="100%" viewBox="0 0 340.000000 250.000000" preserveAspectRatio="xMidYMid meet" color-interpolation-filters="sRGB" style="margin: auto;"> <rect data-v-0dd9719b="" x="0" y="0" width="100%" height="100%" fill="#fff" fill-opacity="1" class="background"></rect> <rect data-v-0dd9719b="" x="0" y="0" width="100%" height="100%" fill="url(#watermark)" fill-opacity="1" class="watermarklayer"></rect> <g data-v-0dd9719b="" fill="#10b6f0" class="icon-text-wrapper icon-svg-group iconsvg" transform="translate(72.39295959472656,94.95523452758789)"><g class="iconsvg-imagesvg" transform="translate(0,0)"><g><rect fill="#10b6f0" fill-opacity="0" stroke-width="2" x="0" y="0" width="60" height="60.089533404773114" class="image-rect"></rect> <svg x="0" y="0" width="60" height="60.089533404773114" filtersec="colorsb1341353925" class="image-svg-svg primary" style="overflow: visible;"><svg xmlns="http://www.w3.org/2000/svg" viewBox="3.1399993896484375 1.0081400871276855 961.5499877929688 962.98046875"><path fill-rule="evenodd" clip-rule="evenodd" fill="#10B6F0" d="M648.79 29.94C568.1 55.75 514.33 136.21 525 223.33c12.11 98.59 102.11 168.92 200.7 156.86 87.13-10.69 152.21-82.3 157.77-166.83 45.41 67.37 72.39 144.41 79.95 223.43-54.56 60.27-130.15 102-216.99 112.63-191.86 23.55-367.1-113.41-390.66-305.32-10.63-86.81 11.61-170.25 56.92-237.74 78.49-11.77 159.77-4.22 236.1 23.58z"></path><path fill-rule="evenodd" clip-rule="evenodd" fill="#10B6F0" d="M242.52 584.8c-87.14 10.68-152.21 82.28-157.79 166.83-45.42-67.36-72.38-144.4-79.94-223.41 54.56-60.27 130.15-101.99 216.98-112.62 191.89-23.53 367.11 113.41 390.63 305.3 10.67 86.82-11.56 170.24-56.87 237.75-78.49 11.75-159.76 4.2-236.08-23.6 80.7-25.84 134.45-106.28 123.76-193.41-12.06-98.52-102.11-168.9-200.69-156.84z"></path><path fill-rule="evenodd" clip-rule="evenodd" fill="#07A150" d="M919.34 688.61c-77.94 20.04-133.37 90.18-135.06 170.47-48.58 38.79-103.42 67.09-161.16 84.44a348.733 348.733 0 0 1-6.76-37.85C592.8 713.82 729.78 538.55 921.67 515.06c14.45-1.78 28.81-2.61 43.02-2.61-3.7 60.14-18.67 119.97-45.35 176.16zM46.13 282.27c77.55-21.03 132.26-91.83 132.83-172.33 48.09-39.46 102.54-68.45 160-86.56 3.45 13.8 6.09 27.95 7.87 42.42C370.35 257.69 233.39 432.93 41.5 456.46c-12.87 1.57-25.68 2.4-38.36 2.57 2.89-60.21 17.09-120.25 42.99-176.76z"></path></svg></svg> <!----></g></g> <g transform="translate(67,6.270593643188477)"><g data-gra="path-name" fill-rule="" class="tp-name iconsvg-namesvg"><g transform="scale(1)"><g><path d="M18.59-9.18L11.92-9.18 11.92-11.68 21.45-11.68 21.45 0 19.54 0 18.83-2.74Q16.32 0.24 11.68 0.36L11.68 0.36Q7.27 0.36 4.89-1.91L4.89-1.91Q1.31-5.24 1.43-11.08L1.43-11.08Q2.26-21.92 11.8-22.4L11.8-22.4Q19.9-21.92 21.09-15.25L21.09-15.25 18.23-15.25Q17.04-19.78 11.68-19.9L11.68-19.9Q4.89-19.42 4.53-10.96L4.53-10.96Q4.53-1.91 11.8-1.91L11.8-1.91Q14.42-1.91 16.32-3.34L16.32-3.34Q18.71-5.24 18.59-9.18L18.59-9.18ZM40.39 0L38.25-6.32 29.43-6.32 27.17 0 24.19 0 32.41-21.81 35.75-21.81 43.61 0 40.39 0ZM33.84-18.59L30.38-8.94 37.18-8.94 33.96-18.59 33.84-18.59ZM56.72-9.41L49.57-9.41 49.57 0 46.59 0 46.59-21.81 56.72-21.81Q63.99-21.81 63.99-15.97L63.99-15.97Q63.99-12.39 60.89-10.72L60.89-10.72Q63.51-10.01 63.51-6.55L63.51-6.55 63.75-2.62Q63.63-0.95 64.82-0.48L64.82-0.48 64.82 0 61.13 0Q60.77-1.55 60.65-5.48L60.65-5.48Q60.77-9.41 56.72-9.41L56.72-9.41ZM56.96-19.42L49.57-19.42 49.57-11.92 56.48-11.92Q60.89-11.92 60.89-15.73L60.89-15.73Q60.89-19.42 56.96-19.42L56.96-19.42ZM82.58-8.1L82.58-21.81 85.55-21.81 85.55-7.75Q85.2 0.12 76.62 0.36L76.62 0.36Q68.63 0.12 68.28-7.27L68.28-7.27 68.28-21.81 71.26-21.81 71.26-8.1Q71.37-2.14 76.74-2.03L76.74-2.03Q82.58-2.14 82.58-8.1L82.58-8.1ZM99.02 0L90.2 0 90.2-21.81 99.14-21.81Q107.96-21.33 108.31-11.2L108.31-11.2Q107.84-0.24 99.02 0L99.02 0ZM98.66-19.42L93.18-19.42 93.18-2.5 98.9-2.5Q105.1-2.86 105.33-10.96L105.33-10.96Q105.22-19.18 98.66-19.42L98.66-19.42ZM126.43 0L124.28-6.32 115.46-6.32 113.2 0 110.22 0 118.44-21.81 121.78-21.81 129.64 0 126.43 0ZM119.87-18.59L116.42-8.94 123.21-8.94 119.99-18.59 119.87-18.59Z" transform="translate(-1.4261081218719482, 22.399999618530273)"></path></g> <!----> <!----> <!----> <!----> <!----> <!----> <g data-gra="path-name-1" fill="#10b6f0" transform="translate(0,25.760000228881836)"><g transform="scale(1.00639)"><path d="M7.48-18.36L0.45-18.36 0.45-20.74 17.23-20.74 17.23-18.36 10.2-18.36 10.2 0 7.48 0 7.48-18.36ZM29.69-8.95L22.89-8.95 22.89 0 20.06 0 20.06-20.74 29.69-20.74Q36.61-20.74 36.61-15.19L36.61-15.19Q36.61-11.79 33.66-10.2L33.66-10.2Q36.16-9.52 36.16-6.23L36.16-6.23 36.38-2.49Q36.27-0.91 37.4-0.45L37.4-0.45 37.4 0 33.89 0Q33.55-1.47 33.44-5.21L33.44-5.21Q33.55-8.95 29.69-8.95L29.69-8.95ZM29.92-18.47L22.89-18.47 22.89-11.33 29.47-11.33Q33.66-11.33 33.66-14.96L33.66-14.96Q33.66-18.47 29.92-18.47L29.92-18.47ZM54.29 0L52.25-6.01 43.86-6.01 41.71 0 38.88 0 46.7-20.74 49.87-20.74 57.35 0 54.29 0ZM48.06-17.68L44.77-8.5 51.23-8.5 48.17-17.68 48.06-17.68ZM68.34 0L59.96 0 59.96-20.74 68.46-20.74Q76.84-20.29 77.18-10.65L77.18-10.65Q76.73-0.23 68.34 0L68.34 0ZM68-18.47L62.79-18.47 62.79-2.38 68.23-2.38Q74.12-2.72 74.35-10.43L74.35-10.43Q74.24-18.25 68-18.47L68-18.47ZM81.15-20.74L83.98-20.74 83.98 0 81.15 0 81.15-20.74ZM92.14-20.74L102.57-3.97 102.57-20.74 105.29-20.74 105.29 0 102.12 0 91.58-16.77 91.46-16.77 91.46 0 88.74 0 88.74-20.74 92.14-20.74ZM125.13-8.73L118.78-8.73 118.78-11.11 127.85-11.11 127.85 0 126.03 0 125.35-2.61Q122.97 0.23 118.55 0.34L118.55 0.34Q114.36 0.34 112.09-1.81L112.09-1.81Q108.69-4.99 108.81-10.54L108.81-10.54Q109.6-20.85 118.67-21.31L118.67-21.31Q126.37-20.85 127.51-14.51L127.51-14.51 124.79-14.51Q123.65-18.81 118.55-18.93L118.55-18.93Q112.09-18.47 111.75-10.43L111.75-10.43Q111.75-1.81 118.67-1.81L118.67-1.81Q121.16-1.81 122.97-3.17L122.97-3.17Q125.24-4.99 125.13-8.73L125.13-8.73Z" transform="translate(-0.45000001788139343, 21.309999465942383)"></path></g></g></g></g> <!----></g></g><defs v-gra="od"></defs></svg>